<svg xmlns="http://www.w3.org/2000/svg" width="165.773" height="56.003" viewBox="0 0 165.773 56.003">
  <defs>
    <style>
      .cls-1 {
        fill: #bfbfbf;
      }

      .cls-2, .cls-6 {
        fill: #5dc1ed;
      }

      .cls-2 {
        font-size: 13.756px;
        letter-spacing: 0.1em;
      }

      .cls-2, .cls-3 {
        font-family: SegoeUI, Segoe UI;
      }

      .cls-3, .cls-5 {
        fill: #0073b4;
      }

      .cls-3 {
        font-size: 32.437px;
      }

      .cls-4 {
        fill: none;
      }
    </style>
  </defs>
  <g id="Layer_166" data-name="Layer 166" transform="translate(-148.929 -12.479)">
    <g id="Group_885" data-name="Group 885">
      <g id="Group_884" data-name="Group 884">
        <path id="Path_1295" data-name="Path 1295" class="cls-1" d="M186.2,25.576c0-.936.889-1.224,1.548-1.494a3.156,3.156,0,0,1,2.163-.357c.339.1.772-.1,1.162-.171.184-.033.365-.081.549-.113.505-.085.651.073.394.551a.627.627,0,0,0-.026.43.775.775,0,0,1-.317.989.571.571,0,0,0-.2.329c-.13.538-.222,1.086-.365,1.62-.1.368.361,1.008.941,1.127a1.151,1.151,0,0,1-1.361.087,14.581,14.581,0,0,1-1.615-1.459.811.811,0,0,0-.879-.305,4.437,4.437,0,0,1-1.508.015c-.123-.017-.2-.416-.286-.643C186.33,25.983,186.269,25.778,186.2,25.576Z"/>
        <path id="Path_1296" data-name="Path 1296" class="cls-1" d="M195.908,24.248a12.3,12.3,0,0,1,.695-1.283.651.651,0,0,1,.569-.229,4.4,4.4,0,0,1,1.1.655.864.864,0,0,1,.369,1.07c-.206.53.106.906.511,1.223.292.23.562.488.854.744a5.074,5.074,0,0,0-.5.406.567.567,0,0,1-.847.051c-.6-.422-1.243-.789-1.82-1.239-.248-.193-.7-.461-.217-.907.033-.031-.115-.333-.24-.438C196.295,24.224,196.1,24.264,195.908,24.248Z"/>
        <path id="Path_1297" data-name="Path 1297" class="cls-1" d="M187.718,21.677a4.856,4.856,0,0,1-.8.276c-.581.1-1.173.126-1.754.224-.432.073-.851.228-1.283.311a1.155,1.155,0,0,1-.6-.039c-.078-.029-.108-.267-.105-.408a1.9,1.9,0,0,1,.175-.469l-2.152.076-.009.165.879.344.018.09-1.553.393-.037-.131.132-.178a.964.964,0,0,0-.133-.089.116.116,0,0,0-.087.008q-1.2.6-2.39,1.2c-.012.005,0,.052,0,.086l1.145.106a6.746,6.746,0,0,1,.8-.781,1.313,1.313,0,0,1,.7-.151,3.322,3.322,0,0,1,.647.1l.053-.134.69.778-.071.147a2.638,2.638,0,0,0-.626-.206,2.292,2.292,0,0,0-.682.113,3.544,3.544,0,0,0,.045.357,1.719,1.719,0,0,0-.549.128,11.582,11.582,0,0,0-1.215.8,2.823,2.823,0,0,0-.549.564,1.342,1.342,0,0,0-.153.433c-.02.066-.008.187-.034.194a.61.61,0,0,1-.238-.018c-.156-.025-.347-.123-.463-.067a4.911,4.911,0,0,0-1.074.662c-.118.1-.053.414-.072.63a2.346,2.346,0,0,0,.577-.175,2.51,2.51,0,0,0,.439-.489l.038.49.452-.14.193.474a3.592,3.592,0,0,0-.753-.013c-.34.062-.663.22-1,.29s-.692.357-1.075.027c-.092-.079-.317,0-.5,0l.079.269a3.655,3.655,0,0,1-.364-.045,6.826,6.826,0,0,1-.755-.188c-.295-.1-.292-.322-.207-.586.061-.19.156-.45.078-.591-.342-.612-.462-.648-1.016-.186-.473.4-.861.9-1.3,1.332a3.649,3.649,0,0,1-.519.364l-.088-.094a9.02,9.02,0,0,1,.544-.978,7.426,7.426,0,0,1,3.058-2.49c.772-.345,1.529-.724,2.291-1.092.045-.022.072-.082.182-.214l-.434.16-.05-.108c.313-.132.621-.275.939-.393s.632-.208.916-.3c.1.067.207.195.281.177a.89.89,0,0,0,.341-.233c.225-.2.442-.407.663-.612.267.507.507-.346.771-.016a4.67,4.67,0,0,1,2.766-.59,15.12,15.12,0,0,1,4.747.394A.272.272,0,0,1,187.718,21.677Z"/>
        <path id="Path_1298" data-name="Path 1298" class="cls-1" d="M177.637,61.926a5.8,5.8,0,0,1,.974-.112c.682.037,1.361.152,2.043.187.509.026,1.022-.045,1.532-.03a1.34,1.34,0,0,1,.675.2c.081.053.055.329.016.489a2.181,2.181,0,0,1-.316.487l2.457.454.052-.184-.909-.611v-.107l1.859-.054.009.158-.195.168a1.267,1.267,0,0,0,.129.135.138.138,0,0,0,.1.012q1.5-.375,3.009-.757c.014,0,.015-.06.023-.1l-1.27-.407a7.877,7.877,0,0,1-1.1.684,1.522,1.522,0,0,1-.833-.005,3.8,3.8,0,0,1-.706-.279l-.1.14-.586-1.055.118-.149a3.017,3.017,0,0,0,.657.39,2.667,2.667,0,0,0,.8.044,4.151,4.151,0,0,0,.038-.416,2.008,2.008,0,0,0,.655-.008,13.3,13.3,0,0,0,1.576-.594,3.277,3.277,0,0,0,.763-.5,1.574,1.574,0,0,0,.283-.453c.039-.069.056-.21.087-.211a.727.727,0,0,1,.265.08c.171.068.362.227.508.192a5.666,5.666,0,0,0,1.383-.48c.159-.086.164-.455.24-.695a2.709,2.709,0,0,0-.7.053,2.857,2.857,0,0,0-.621.444l.08-.565-.547.045-.1-.585a4.185,4.185,0,0,0,.85.2c.4.014.806-.083,1.209-.078s.874-.23,1.225.24c.084.113.358.084.571.125l-.021-.325c.151.053.281.087.4.142a7.9,7.9,0,0,1,.808.4c.308.19.249.439.087.716-.117.2-.29.471-.236.65.233.779.36.851,1.1.466.636-.33,1.2-.8,1.81-1.181a4.294,4.294,0,0,1,.679-.283l.077.129a10.519,10.519,0,0,1-.862.971,8.629,8.629,0,0,1-4.09,2.053c-.962.2-1.914.436-2.87.662-.057.013-.1.074-.26.2l.532-.072.029.135c-.387.071-.773.155-1.162.21s-.769.076-1.113.109c-.1-.1-.186-.272-.275-.272a1.045,1.045,0,0,0-.444.179c-.3.169-.6.351-.9.527-.175-.641-.661.264-.877-.176a5.417,5.417,0,0,1-3.283-.026,17.544,17.544,0,0,1-5.278-1.639A.343.343,0,0,1,177.637,61.926Z"/>
        <path id="Path_1299" data-name="Path 1299" class="cls-1" d="M190.439,47.486c.005-.927.88-1.211,1.532-1.479a3.123,3.123,0,0,1,2.139-.352,2.82,2.82,0,0,0,1.149-.17c.182-.032.362-.08.544-.111.5-.085.644.072.389.545a.624.624,0,0,0-.026.425.766.766,0,0,1-.313.978.569.569,0,0,0-.194.326c-.129.532-.22,1.073-.361,1.6-.1.364.357,1,.931,1.114a1.138,1.138,0,0,1-1.347.087,14.539,14.539,0,0,1-1.6-1.443.8.8,0,0,0-.87-.3,4.363,4.363,0,0,1-1.491.014c-.121-.016-.2-.411-.283-.636C190.566,47.888,190.506,47.685,190.439,47.486Z"/>
        <path id="Path_1300" data-name="Path 1300" class="cls-1" d="M177.469,55.958c0-.639.607-.835,1.056-1.02A2.159,2.159,0,0,1,180,54.695c.231.07.527-.07.792-.117.126-.022.25-.055.375-.076.344-.059.444.049.269.375a.432.432,0,0,0-.018.293.529.529,0,0,1-.216.675.389.389,0,0,0-.134.225c-.089.366-.151.74-.249,1.1-.068.252.247.688.642.769a.783.783,0,0,1-.928.06,10.08,10.08,0,0,1-1.1-.995.553.553,0,0,0-.6-.209,3.006,3.006,0,0,1-1.028.01c-.084-.011-.136-.283-.2-.438C177.557,56.235,177.515,56.1,177.469,55.958Z"/>
        <path id="Path_1301" data-name="Path 1301" class="cls-1" d="M190.345,44.08a12.041,12.041,0,0,1,.695-1.283.649.649,0,0,1,.569-.228,4.369,4.369,0,0,1,1.1.655.864.864,0,0,1,.369,1.069c-.206.53.106.906.511,1.224.292.229.562.488.854.744a5.066,5.066,0,0,0-.5.4.566.566,0,0,1-.846.051c-.6-.422-1.243-.788-1.821-1.239-.247-.193-.7-.461-.217-.906.034-.032-.115-.334-.239-.439C190.731,44.056,190.542,44.1,190.345,44.08Z"/>
        <path id="Path_1302" data-name="Path 1302" class="cls-1" d="M177.691,59.977a12.149,12.149,0,0,1-.473,1.38.647.647,0,0,1-.523.319,4.346,4.346,0,0,1-1.2-.463.865.865,0,0,1-.541-.994c.115-.556-.254-.875-.706-1.122-.327-.178-.635-.388-.966-.592a5.148,5.148,0,0,0,.427-.483.565.565,0,0,1,.826-.19c.663.316,1.356.572,2,.92.276.15.767.339.365.859-.029.036.168.309.308.392C177.314,60.064,177.495,59.993,177.691,59.977Z"/>
        <path id="Path_1303" data-name="Path 1303" class="cls-1" d="M198.066,40.325a12.281,12.281,0,0,1-.473,1.38.652.652,0,0,1-.524.32,4.361,4.361,0,0,1-1.2-.464.864.864,0,0,1-.541-.994c.115-.556-.254-.875-.706-1.122-.326-.177-.635-.388-.965-.592a5.144,5.144,0,0,0,.426-.483.566.566,0,0,1,.826-.19c.663.317,1.357.572,2,.921.276.149.766.338.364.858-.028.036.168.309.308.392C197.689,40.412,197.869,40.341,198.066,40.325Z"/>
        <path id="Path_1304" data-name="Path 1304" class="cls-1" d="M196.044,61.242a20.4,20.4,0,0,1-6.611,2.411c-3.658.6,1.978-2.167,1.978-2.167Z"/>
      </g>
      <text id="SOLUTIONS" class="cls-2" transform="translate(222.391 60.637)"><tspan x="0" y="0">SOLUTIONS</tspan></text>
      <text id="Cloud_" data-name="Cloud " class="cls-3" transform="translate(220.702 47.479)"><tspan x="0" y="0">Cloud </tspan></text>
      <path id="Path_1305" data-name="Path 1305" class="cls-4" d="M184.539,37.994c0-2.2-1.69-3.539-3.931-3.539H175.75v7.078h4.858C182.849,41.533,184.539,40.2,184.539,37.994Z"/>
      <path id="Path_1306" data-name="Path 1306" class="cls-5" d="M197.453,62.115v3.78a26.205,26.205,0,0,0,9.132-7.545h-4.379A22.954,22.954,0,0,1,197.453,62.115Z"/>
      <path id="Path_1307" data-name="Path 1307" class="cls-5" d="M205.73,54.739h-.674a22.7,22.7,0,0,1-1.848,2.5h2.522Z"/>
      <path id="Path_1308" data-name="Path 1308" class="cls-6" d="M211.878,42.587h-3.316a22.542,22.542,0,0,1-1.831,8.912v6.586A25.87,25.87,0,0,0,211.878,42.587Z"/>
      <path id="Path_1309" data-name="Path 1309" class="cls-6" d="M205.73,53.543c-.225.406-.46.806-.708,1.2h.034c.236-.371.459-.752.674-1.137Z"/>
      <path id="Path_1310" data-name="Path 1310" class="cls-6" d="M205.73,53.6c-.215.385-.438.766-.674,1.137h.674Z"/>
      <path id="Path_1311" data-name="Path 1311" class="cls-5" d="M178.838,46.448l5.151,9.319h1l-5.151-9.319Z"/>
      <path id="Path_1312" data-name="Path 1312" class="cls-5" d="M185.541,37.994c0-2.2-1.691-3.539-3.932-3.539h-1c2.241,0,3.931,1.337,3.931,3.539s-1.69,3.539-3.931,3.539h1C183.85,41.533,185.541,40.2,185.541,37.994Z"/>
      <rect id="Rectangle_58" data-name="Rectangle 58" class="cls-5" width="1.001" height="26.964" transform="translate(169.165 29.541)"/>
      <path id="Path_1313" data-name="Path 1313" class="cls-5" d="M190.241,37.994c0-4.875-3.342-8.453-8.808-8.453H170.167V56.505h4.582V46.448h5.09l5.151,9.319H190.4l-5.9-9.988C187.331,45.111,190.241,42.634,190.241,37.994Zm-9.633,3.539h-5.859V34.455h6.86c2.241,0,3.932,1.337,3.932,3.539s-1.691,3.539-3.932,3.539Z"/>
      <rect id="Rectangle_59" data-name="Rectangle 59" class="cls-5" width="1.001" height="22.788" transform="translate(200.107 34.455)"/>
      <rect id="Rectangle_60" data-name="Rectangle 60" class="cls-5" width="1.001" height="4.915" transform="translate(192.44 29.541)"/>
      <path id="Path_1314" data-name="Path 1314" class="cls-5" d="M193.441,29.541v4.915h7.667V57.243h4.622V34.455h7.628V29.541Z"/>
      <path id="Path_1315" data-name="Path 1315" class="cls-5" d="M177.422,20.6a29.244,29.244,0,0,0-4.263,2.257c-1.4,1.016-.127-3.215-.127-3.215l4.046-.758Z"/>
      <path id="Path_1316" data-name="Path 1316" class="cls-6" d="M207.378,43.5H212.8l-2.671-3.938Z"/>
      <path id="Path_1317" data-name="Path 1317" class="cls-5" d="M163.734,27.943a12.07,12.07,0,0,0-.97,2.042,13.757,13.757,0,0,1,3.894-.447l-.453-1.829Z"/>
      <path id="Path_1318" data-name="Path 1318" class="cls-5" d="M166.176,29.518c.162,0,.322.009.482.02a13.108,13.108,0,0,1,1.168-1.833A13.215,13.215,0,0,1,168.6,26.5a16.84,16.84,0,0,0-2.422-.177c-.438,0-.87.022-1.3.055a19.074,19.074,0,0,0-2.012,3.552A13.651,13.651,0,0,1,166.176,29.518Z"/>
      <path id="Path_1319" data-name="Path 1319" class="cls-5" d="M170.489,59.432a12.62,12.62,0,0,1-2.344-2.78,13.188,13.188,0,0,1-1.969.15,13.652,13.652,0,0,1-1.394-.071,18.74,18.74,0,0,0,1.819,3.256A16.841,16.841,0,0,0,170.489,59.432Z"/>
      <path id="Path_1320" data-name="Path 1320" class="cls-5" d="M152.128,43.16A13.663,13.663,0,0,1,161.4,30.239a17.181,17.181,0,0,1,2.029-3.754,16.837,16.837,0,0,0,1.851,33.5,17.115,17.115,0,0,1-1.763-3.376A13.66,13.66,0,0,1,152.128,43.16Z"/>
      <path id="Path_1321" data-name="Path 1321" class="cls-5" d="M185.873,65.283a23.032,23.032,0,0,1-15.6-6.067H166.11a9.891,9.891,0,0,0,1.359,1.719c.058.056.1.1.145.152a26.256,26.256,0,0,0,38.219-1.8h-4.445A23.036,23.036,0,0,1,185.873,65.283Z"/>
      <path id="Path_1322" data-name="Path 1322" class="cls-6" d="M197.407,16.051a6.523,6.523,0,0,1,4.825,2.717c2.061,2.723-13.792,9.751-22.912,5.793,0,0,3.1,5.34,16.964,1.455S203.854,14.474,197.407,16.051Z"/>
      <path id="Path_1323" data-name="Path 1323" class="cls-4" d="M201.9,19.662c.184-.37.063-.53.011-.6a6.517,6.517,0,0,0-2.39-1.981A3.172,3.172,0,0,1,198.9,19.3q1.1.631,2.136,1.364A3.452,3.452,0,0,0,201.9,19.662Z"/>
      <path id="Path_1324" data-name="Path 1324" class="cls-5" d="M203.715,22.831a10.322,10.322,0,0,1-2.67,1.908,23.445,23.445,0,0,1,3.048,3.2h3.918A26.648,26.648,0,0,0,203.715,22.831Z"/>
      <path id="Path_1325" data-name="Path 1325" class="cls-5" d="M185.873,15.833a26.321,26.321,0,0,0-22.139,12.11h3.918A23.1,23.1,0,0,1,192.53,20.01a12.883,12.883,0,0,0,3.679-2.056A26.13,26.13,0,0,0,185.873,15.833Z"/>
      <path id="Path_1326" data-name="Path 1326" class="cls-5" d="M198.9,19.3a7.259,7.259,0,0,1-2.7,2.179c.621.312,1.222.657,1.81,1.022a13.928,13.928,0,0,0,3.023-1.837Q200,19.931,198.9,19.3Z"/>
      <path id="Path_1327" data-name="Path 1327" class="cls-6" d="M193.33,14.4a5.258,5.258,0,0,1,3.889,2.19c1.661,2.194-11.116,7.859-18.467,4.669,0,0,2.5,4.3,13.673,1.173S198.526,13.124,193.33,14.4Z"/>
    </g>
  </g>
</svg>
